<svg width="43" height="51" viewBox="0 0 43 51" fill="none" xmlns="http://www.w3.org/2000/svg">
<path d="M42.0202 39.7088C41.2496 41.489 40.3375 43.1276 39.2807 44.6342C37.8402 46.688 36.6607 48.1097 35.7518 48.8991C34.3427 50.1949 32.833 50.8586 31.2163 50.8963C30.0558 50.8963 28.6561 50.5661 27.0269 49.8961C25.3923 49.2294 23.8902 48.8991 22.5167 48.8991C21.0761 48.8991 19.5312 49.2294 17.8787 49.8961C16.2237 50.5661 14.8904 50.9152 13.8711 50.9498C12.3208 51.0158 10.7755 50.3333 9.23312 48.8991C8.24866 48.0405 7.01731 46.5685 5.5422 44.4832C3.95952 42.2564 2.65834 39.6742 1.63898 36.7302C0.547269 33.5504 0 30.4712 0 27.4902C0 24.0754 0.73787 21.1302 2.21581 18.6622C3.37734 16.6798 4.92259 15.116 6.85659 13.9679C8.79059 12.8199 10.8803 12.2349 13.1307 12.1975C14.362 12.1975 15.9768 12.5784 17.9834 13.3269C19.9844 14.078 21.2693 14.4589 21.8326 14.4589C22.2537 14.4589 23.681 14.0135 26.1006 13.1257C28.3888 12.3022 30.32 11.9613 31.902 12.0956C36.1889 12.4416 39.4097 14.1315 41.5516 17.1761C37.7175 19.4991 35.821 22.7529 35.8587 26.9269C35.8933 30.1781 37.0728 32.8836 39.3908 35.0318C40.4413 36.0289 41.6145 36.7994 42.9197 37.3467C42.6367 38.1676 42.3379 38.9539 42.0202 39.7088ZM32.1882 1.01937C32.1882 3.56766 31.2572 5.94699 29.4016 8.14928C27.1621 10.7674 24.4535 12.2802 21.5162 12.0415C21.4787 11.7358 21.457 11.414 21.457 11.0759C21.457 8.62956 22.522 6.01147 24.4132 3.87083C25.3574 2.78699 26.5583 1.88579 28.0145 1.16688C29.4676 0.458704 30.8421 0.0670664 32.1348 0C32.1725 0.340667 32.1882 0.681388 32.1882 1.01937Z" fill="white" fill-opacity="0.5"/>
</svg>
