<svg width="95" height="31" viewBox="0 0 95 31" fill="none" xmlns="http://www.w3.org/2000/svg">
<path d="M40.6351 0.840576L46.4896 4.83283L33.9553 12.8787C34.5909 13.3638 35.3158 13.7708 35.9514 14.2503L48.5638 6.24908L54.0504 9.92909L41.583 18.0976C42.1405 18.6552 42.9602 18.9619 43.646 19.4079L56.4257 11.3007V2.4464H65.7763V20.0937L74.0675 20.1495V28.4407H56.4814V20.077L40.7689 30.1134L24.6828 19.3299C23.1104 24.309 19.3858 28.0504 13.2078 28.4964C9.30476 28.7752 4.98353 28.2901 0.550781 28.4964V2.49658C6.09311 2.86458 12.1819 1.75501 16.5756 3.12107C20.4619 4.32544 23.2665 7.42558 24.4932 11.2896L40.6407 0.940938L40.6351 0.840576ZM9.4107 10.7543V20.1049C11.641 20.116 13.3305 20.2443 14.6519 19.2295C16.6035 17.724 17.0049 13.9883 15.2764 11.9977C14.1222 10.6707 12.1763 10.3919 9.47761 10.5647C9.40512 10.5759 9.4107 10.6651 9.42185 10.7543H9.4107ZM76.5543 2.34604H85.9048V20.0547H94.1347V28.3459H76.4874V2.53003C76.4818 2.44082 76.4762 2.35161 76.5431 2.34046L76.5543 2.34604Z" fill="white" fill-opacity="0.5"/>
</svg>
