<svg width="47" height="47" viewBox="0 0 47 47" fill="none" xmlns="http://www.w3.org/2000/svg">
<path d="M23.0878 46.4302C22.8596 46.4302 22.6324 46.4261 22.4056 46.4196L27.0965 33.5278H33.552C34.6851 33.5278 35.9289 32.6568 36.3165 31.5925L41.4054 17.614C42.2381 15.3253 40.9272 13.453 38.492 13.453H29.5361L22.0219 34.1018H22.0191L17.759 45.807C7.6523 43.4044 0.134766 34.3191 0.134766 23.4772C0.134766 12.948 7.22469 4.07551 16.8908 1.37152L12.4952 13.453H12.4939L5.18655 33.5278L10.051 33.5283L16.2653 16.4697H19.9213L13.707 33.5283L18.5696 33.5291L24.3608 17.614C25.1939 15.3253 23.8829 13.453 21.4499 13.453H17.3609L22.0559 0.548292C22.3981 0.533096 22.7418 0.52417 23.0876 0.52417C35.7642 0.52417 46.0406 10.8005 46.0406 23.4772C46.0406 36.1537 35.7642 46.4302 23.0876 46.4302H23.0878ZM36.9756 16.4574H33.3207L28.2023 30.501H31.8573L36.9756 16.4574Z" fill="white" fill-opacity="0.5"/>
</svg>
