<svg width="88" height="35" viewBox="0 0 88 35" fill="none" xmlns="http://www.w3.org/2000/svg">
<path d="M0.919922 0.150879V2.52172H17.7826V0.150879H0.919922ZM20.1717 0.150879V2.52172H44.2017C44.2017 2.52172 41.7472 0.150879 38.4962 0.150879H20.1717ZM48.9157 0.150879V2.52172H63.4535L62.5905 0.150879H48.9157ZM73.8763 0.150879L73.0134 2.52172H87.4192V0.150879H73.8763ZM0.919922 4.76159V7.13242H17.7826V4.76159H0.919922ZM20.1717 4.76494V7.13242H46.9901C46.9901 7.13242 46.6769 5.30772 46.1306 4.76494H20.1717ZM48.9157 4.76494V7.13242H65.0473L64.2487 4.76494H48.9157ZM72.1504 4.76494L71.3518 7.13242H87.4192V4.76494H72.1504ZM5.76586 9.37229V11.7465H13.0686V9.37229H5.76586ZM25.0176 9.37229V11.7465H32.3204V9.37229H25.0176ZM39.4234 9.37229V11.7465H46.7262C46.7262 11.7465 47.1898 10.4927 47.1898 9.37229H39.4234ZM53.7616 9.37229V11.7465H66.7089L65.846 9.37229H53.7616ZM70.5599 9.37229L69.6936 11.7465H82.7052V9.37229H70.5599ZM5.76586 13.9864V16.3572H13.0686V13.9864H5.76586ZM25.0176 13.9864V16.3572H43.6704C43.6704 16.3572 45.2307 15.1407 45.7279 13.9864H25.0176ZM53.7616 13.9864V16.3572H61.0643V15.0375L61.528 16.3572H74.905L75.4025 15.0375V16.3572H82.7052V13.9864H68.9965L68.2689 15.9945L67.538 13.9864H53.7616ZM5.76586 18.5971V20.9679H13.0686V18.5971H5.76586ZM25.0176 18.5971V20.9679H45.7279C45.2306 19.8173 43.6704 18.5971 43.6704 18.5971H25.0176ZM53.7616 18.5971V20.9679H61.0643V18.5971H53.7616ZM62.3909 18.5971L63.2741 20.9679H73.3044L74.1436 18.5971H62.3909ZM75.4025 18.5971V20.9679H82.7052V18.5971H75.4025ZM5.76586 23.2078V25.5786H13.0686V23.2078H5.76586ZM25.0176 23.2078V25.5786H32.3204V23.2078H25.0176ZM39.4234 23.2078V25.5786H47.1898C47.1898 24.4597 46.7262 23.2078 46.7262 23.2078H39.4234ZM53.7616 23.2078V25.5786H61.0643V23.2078H53.7616ZM64.0491 23.2078L64.9052 25.5786H71.6293L72.4922 23.2078H64.0491ZM75.4025 23.2078V25.5786H82.7052V23.2078H75.4025ZM1.0519 27.8185V30.1927H17.9145V27.8185H1.0519ZM20.1717 27.8185V30.1927H46.1306C46.6769 29.649 46.9901 27.8185 46.9901 27.8185H20.1717ZM49.0476 27.8185V30.1927H61.0643V27.8185H49.0476ZM65.7106 27.8185L66.5905 30.1927H70.0117L70.8374 27.8185H65.7106ZM75.4025 27.8185V30.1927H87.5512V27.8185H75.4025ZM1.0519 32.4325V34.8034H17.9145V32.4325H1.0519ZM20.1717 32.4325V34.8H38.4962C41.7472 34.8 44.2017 32.4325 44.2017 32.4325H20.1717ZM49.0476 32.4325V34.8034H61.0643V32.4325H49.0476ZM67.3789 32.4325L68.225 34.7967L68.3705 34.8L69.23 32.4325H67.3789ZM75.4025 32.4325V34.8034H87.5512V32.4325H75.4025Z" fill="white" fill-opacity="0.5"/>
</svg>
