<svg width="93" height="34" viewBox="0 0 93 34" fill="none" xmlns="http://www.w3.org/2000/svg">
<path d="M17.884 12.0221C15.4418 12.0221 13.3484 14.6745 13.3484 19.4788C13.3484 21.4806 14.3452 22.8319 16.2891 22.8319C19.8279 22.8319 20.8746 17.5271 20.8746 15.3751C20.8746 13.5735 19.8777 12.0221 17.884 12.0221ZM82.0309 21.1303C82.0309 18.8282 81.1337 18.1276 80.0372 17.1768C82.2303 15.9256 82.9779 14.3242 82.9779 12.1723C82.9281 7.21779 77.5949 7.61815 75.2524 7.61815H68.0252L66.53 15.1249H62.094L61.3464 18.9784H65.7823L64.0877 27.2358H74.7041C80.7848 27.2358 82.0309 22.8319 82.0309 21.1303ZM60.5988 7.61815H55.2158L51.2284 27.2358H56.6114L60.5988 7.61815ZM50.1319 27.2358C49.9325 26.7354 49.7332 26.285 49.9325 25.2841L51.4278 17.8273C52.1256 14.2741 48.5868 12.7227 44.9483 12.7227C42.1073 12.7227 39.6651 13.2732 37.9704 15.7755L38.5187 12.9229C35.7275 12.0221 34.3319 13.8237 33.684 14.5744V13.1231H29.0985L26.2575 27.2358H31.5408L32.7868 21.0803C33.3351 18.1777 34.7307 17.6272 35.8272 17.6272H43.0543C43.3035 15.6254 46.7426 15.7755 46.4436 17.0767C46.1944 18.1777 43.7023 18.0776 40.1136 18.7782C39.3162 18.9784 35.9269 19.7791 35.9269 23.3823C35.9269 27.7363 41.1105 28.8873 44.4001 26.335V27.2358H50.1319ZM26.8556 15.6754C26.9055 11.0212 24.1641 7.1177 18.2828 7.06766C11.5541 7.06766 7.46701 12.6227 7.51685 19.1285C7.5667 23.5825 10.0588 27.6362 16.1395 27.6362C24.1641 27.6862 26.8058 20.2295 26.8556 15.6754ZM92.6473 17.477C92.6473 26.5852 86.2675 33.9919 77.6946 33.9919H14.9932C6.42032 33.9919 0.0405273 26.5852 0.0405273 17.477C0.0405273 8.36883 6.42032 0.962158 14.9932 0.962158H77.6946C86.2675 0.962158 92.6473 8.36883 92.6473 17.477ZM75.4517 18.9784H71.4145L70.7666 22.2313H74.9035C77.0467 22.2313 77.2461 18.9784 75.4517 18.9784ZM76.299 12.2223H72.7603L72.1621 15.1249H75.7508C78.0435 15.175 78.4921 12.2223 76.299 12.2223ZM45.5464 20.78C44.6991 24.6835 41.2102 24.6335 41.2102 22.8819C41.2102 21.5807 43.4531 21.4306 45.5464 20.78Z" fill="white" fill-opacity="0.5"/>
</svg>
